<svg id="Group_16" data-name="Group 16" xmlns="http://www.w3.org/2000/svg" width="53.543" height="53.556" viewBox="0 0 53.543 53.556">
  <g id="Group_4" data-name="Group 4" transform="translate(1.468 1.468)">
    <path id="Path_23" data-name="Path 23" d="M156.6,464.895a25.3,25.3,0,1,1,25.3-25.3A25.324,25.324,0,0,1,156.6,464.895Zm0-49.969A24.672,24.672,0,1,0,181.269,439.6,24.7,24.7,0,0,0,156.6,414.925Z" transform="translate(-131.3 -414.3)" fill="#cca87c"/>
  </g>
  <g id="Group_5" data-name="Group 5" transform="translate(14.346 14.346)">
    <path id="Path_24" data-name="Path 24" d="M244.619,540.038a12.419,12.419,0,1,1,12.419-12.419A12.433,12.433,0,0,1,244.619,540.038Zm0-24.519a12.1,12.1,0,1,0,12.1,12.1A12.109,12.109,0,0,0,244.619,515.519Z" transform="translate(-232.2 -515.2)" fill="#cca87c"/>
  </g>
  <g id="Group_6" data-name="Group 6" transform="translate(3.178 3.178)">
    <path id="Path_25" data-name="Path 25" d="M168.287,474.874a23.587,23.587,0,1,1,23.587-23.587A23.614,23.614,0,0,1,168.287,474.874Zm0-46.855A23.274,23.274,0,1,0,191.555,451.3,23.3,23.3,0,0,0,168.287,428.019Z" transform="translate(-144.7 -427.7)" fill="#cca87c"/>
  </g>
  <g id="Group_7" data-name="Group 7" transform="translate(18.42 6.095)">
    <rect id="Rectangle_71" data-name="Rectangle 71" width="0.625" height="3.114" transform="translate(0 0.227) rotate(-21.31)" fill="#cca87c"/>
  </g>
  <g id="Group_8" data-name="Group 8" transform="translate(33.406 44.487)">
    <rect id="Rectangle_72" data-name="Rectangle 72" width="0.625" height="3.114" transform="matrix(0.932, -0.363, 0.363, 0.932, 0, 0.227)" fill="#cca87c"/>
  </g>
  <g id="Group_9" data-name="Group 9" transform="translate(34.126 6.43)">
    <rect id="Rectangle_73" data-name="Rectangle 73" width="3.114" height="0.625" transform="matrix(0.401, -0.916, 0.916, 0.401, 0, 2.852)" fill="#cca87c"/>
  </g>
  <g id="Group_10" data-name="Group 10" transform="translate(17.592 44.175)">
    <rect id="Rectangle_74" data-name="Rectangle 74" width="3.114" height="0.625" transform="translate(0 2.852) rotate(-66.334)" fill="#cca87c"/>
  </g>
  <g id="Group_11" data-name="Group 11" transform="translate(44.138 17.79)">
    <rect id="Rectangle_75" data-name="Rectangle 75" width="3.114" height="0.625" transform="translate(0 1.233) rotate(-23.322)" fill="#cca87c"/>
  </g>
  <g id="Group_12" data-name="Group 12" transform="translate(6.296 34.115)">
    <rect id="Rectangle_76" data-name="Rectangle 76" width="3.114" height="0.625" transform="translate(0 1.233) rotate(-23.322)" fill="#cca87c"/>
  </g>
  <g id="Group_13" data-name="Group 13" transform="translate(44.386 33.511)">
    <rect id="Rectangle_77" data-name="Rectangle 77" width="0.625" height="3.114" transform="translate(0 0.582) rotate(-68.556)" fill="#cca87c"/>
  </g>
  <g id="Group_14" data-name="Group 14" transform="translate(6.034 18.459)">
    <rect id="Rectangle_78" data-name="Rectangle 78" width="0.625" height="3.114" transform="translate(0 0.582) rotate(-68.556)" fill="#cca87c"/>
  </g>
  <g id="Group_15" data-name="Group 15" transform="translate(0 0)">
    <path id="Path_26" data-name="Path 26" d="M329.726,611.7l-.026.051.026.013.038-.038Z" transform="translate(-302.909 -585.037)" fill="#cca87c"/>
    <path id="Path_27" data-name="Path 27" d="M329.5,612.6h0l.051.038.038-.013Z" transform="translate(-302.735 -585.822)" fill="#cca87c"/>
    <path id="Path_28" data-name="Path 28" d="M330.189,612.251h0l-.051-.051-.038.013Z" transform="translate(-303.258 -585.473)" fill="#cca87c"/>
    <path id="Path_29" data-name="Path 29" d="M330.225,612.9l-.025.038.025.026.026-.051Z" transform="translate(-303.345 -586.084)" fill="#cca87c"/>
    <path id="Path_30" data-name="Path 30" d="M173.343,429.578l-19.133-3.165,5.4-9.879-9.879,5.4L146.565,402.8,143.4,421.933l-9.79-5.4,5.322,9.879L119.8,429.578l19.133,3.165-4.429,9.062,8.9-4.582,3.165,19.133,3.165-19.133,9.062,4.582-4.582-9.062Zm-15.355,11.36-8.539-4.62-2.731-6.369v24.059l-2.731-17.639,2.655-6.612-.038-.077L135.4,440.938l4.569-8.475,6.612-2.821-.026-.051H122.289l17.639-2.731,6.65,2.668v-.1l-11.474-11.6,8.756,5.016,2.719,6.369V405.136l2.731,17.639-2.655,6.612.038.077,12.113-12.113-5.488,9.343-6.612,2.821.026.051h24.276L153.368,432.3l-6.65-2.668v.089Z" transform="translate(-119.8 -402.8)" fill="#cca87c"/>
  </g>
</svg>
