<svg xmlns="http://www.w3.org/2000/svg" width="280.276" height="28.45" viewBox="0 0 280.276 28.45">
  <g id="Group_3" data-name="Group 3" transform="translate(0)">
    <g id="Group_2" data-name="Group 2" transform="translate(0 0)">
      <path id="Path_15" data-name="Path 15" d="M684.3,531.472a2.208,2.208,0,0,0,1.34-2v-22.63a2.189,2.189,0,0,0-1.34-2V504.4h17.09c9,0,13.836,5.82,13.836,13.746,0,7.224-4.837,13.746-13.836,13.746H684.3Zm17.09-4.94c5.31,0,7.543-3.689,7.543-8.373s-2.629-8.373-7.582-8.373h-9.777v16.733h9.815Z" transform="translate(-684.3 -503.94)" fill="#fff"/>
      <path id="Path_16" data-name="Path 16" d="M1014.3,531.472a2.272,2.272,0,0,0,1.34-2v-22.63a2.25,2.25,0,0,0-1.34-2V504.4h8.6v.434a2.209,2.209,0,0,0-1.34,2v22.63a2.188,2.188,0,0,0,1.34,2v.434h-8.6Z" transform="translate(-972.18 -503.94)" fill="#fff"/>
      <path id="Path_17" data-name="Path 17" d="M1174.478,518.746a13.223,13.223,0,0,0,9.943,4.837c2.949,0,5.82-.983,5.82-2.744,0-1.723-1.889-2.438-5.539-2.987-5.616-.945-13.632-2.157-13.632-9.432,0-4.161,4.48-7.62,11.232-7.62a18.728,18.728,0,0,1,10.887,3.216,2.4,2.4,0,0,0,2.2-.153l.357.23-4.046,5.858a13.73,13.73,0,0,0-9.662-3.689c-3.344,0-4.838,1.1-4.838,2.234,0,1.174.74,2.234,6.841,3.344,5.5.983,12.419,2.668,12.419,9,0,4.442-4.442,8.411-12.062,8.411a19.887,19.887,0,0,1-12.534-4.238,2.253,2.253,0,0,0-2,.038l-.357-.281Z" transform="translate(-1107.572 -500.8)" fill="#fff"/>
      <path id="Path_18" data-name="Path 18" d="M1479.912,500.8c6.012,0,10.211,2.91,13.325,5.654a2.772,2.772,0,0,0,2.438.7l.23.319-6.011,4.633c-1.213-1.723-4.519-5.82-9.9-5.82-5.31,0-9.7,3.969-9.7,8.679,0,5.029,4.442,8.717,9.7,8.717a12.578,12.578,0,0,0,9.981-5.386l5.654,4.365-.23.319a2.46,2.46,0,0,0-2.361.791c-2.591,2.629-6.714,5.463-13.912,5.463-7.62,0-15.521-5.5-15.521-14.219C1463.613,506.722,1470.684,500.8,1479.912,500.8Z" transform="translate(-1364.134 -500.8)" fill="#fff"/>
      <path id="Path_19" data-name="Path 19" d="M1801.3,531.472a2.272,2.272,0,0,0,1.34-2v-22.63a2.25,2.25,0,0,0-1.34-2V504.4h8.6v.434a2.209,2.209,0,0,0-1.34,2v19.682h12.815a2.205,2.205,0,0,0,2-1.34h.434v6.714H1801.3Z" transform="translate(-1658.731 -503.94)" fill="#fff"/>
      <path id="Path_20" data-name="Path 20" d="M2086.356,515.019c0,8.335-7.148,14.219-15.878,14.219s-15.878-5.9-15.878-14.219,7.147-14.219,15.878-14.219S2086.356,506.684,2086.356,515.019Zm-6.37,0c0-4.952-4.672-8.679-9.509-8.679-4.671,0-9.509,3.382-9.509,8.679,0,5.105,4.8,8.679,9.509,8.679C2075.149,523.7,2079.987,520.048,2079.987,515.019Z" transform="translate(-1879.701 -500.8)" fill="#fff"/>
      <path id="Path_21" data-name="Path 21" d="M2385.378,518.746a13.223,13.223,0,0,0,9.942,4.837c2.949,0,5.82-.983,5.82-2.744,0-1.723-1.888-2.438-5.539-2.987-5.616-.945-13.631-2.157-13.631-9.432,0-4.161,4.48-7.62,11.231-7.62a18.728,18.728,0,0,1,10.888,3.216,2.4,2.4,0,0,0,2.2-.153l.357.23-4.046,5.858a13.732,13.732,0,0,0-9.663-3.689c-3.344,0-4.837,1.1-4.837,2.234,0,1.174.741,2.234,6.841,3.344,5.5.983,12.419,2.668,12.419,9,0,4.442-4.442,8.411-12.062,8.411a19.888,19.888,0,0,1-12.534-4.238,2.251,2.251,0,0,0-2,.038l-.357-.281Z" transform="translate(-2163.917 -500.8)" fill="#fff"/>
      <path id="Path_22" data-name="Path 22" d="M2679.2,531.472a2.273,2.273,0,0,0,1.34-2v-22.63a2.251,2.251,0,0,0-1.34-2V504.4h24.824v6.714h-.433a2.271,2.271,0,0,0-2-1.34h-15.163v5.182h8.412a2.205,2.205,0,0,0,2-1.34h.434v8.054h-.434a2.225,2.225,0,0,0-2-1.34h-8.412v6.165h15.993a2.248,2.248,0,0,0,2-1.34h.435v6.714H2679.2Z" transform="translate(-2424.579 -503.94)" fill="#fff"/>
    </g>
  </g>
</svg>
